<svg xmlns="http://www.w3.org/2000/svg" viewBox="0 0 220 220" role="img" aria-labelledby="title desc">
  <title id="title">Sri Sakthi Industries logo</title>
  <desc id="desc">Industrial shield logo with steel truss lines, spark accent, and SSI initials.</desc>
  <defs>
    <linearGradient id="steel" x1="28" y1="22" x2="190" y2="202" gradientUnits="userSpaceOnUse">
      <stop offset="0" stop-color="#f0b64a"/>
      <stop offset="0.42" stop-color="#d89222"/>
      <stop offset="1" stop-color="#7e4e13"/>
    </linearGradient>
    <linearGradient id="dark" x1="54" y1="36" x2="168" y2="184" gradientUnits="userSpaceOnUse">
      <stop offset="0" stop-color="#1e3b49"/>
      <stop offset="1" stop-color="#0d1820"/>
    </linearGradient>
  </defs>
  <path fill="url(#dark)" d="M110 13 190 45v67c0 48-31 78-80 95-49-17-80-47-80-95V45l80-32Z"/>
  <path fill="none" stroke="url(#steel)" stroke-width="10" d="M110 18 185 48v63c0 44-29 72-75 88-46-16-75-44-75-88V48l75-30Z"/>
  <path fill="none" stroke="#ffffff" stroke-linecap="round" stroke-linejoin="round" stroke-width="7" d="M55 122h110M70 122l40-48 40 48M82 122l28-34 28 34M110 74v48"/>
  <path fill="#d89222" d="m162 60 10 19 21 4-15 15 3 21-19-10-19 10 4-21-16-15 22-4 9-19Z"/>
  <text x="110" y="163" fill="#ffffff" font-family="Arial, Helvetica, sans-serif" font-size="40" font-weight="900" letter-spacing="0" text-anchor="middle">SSI</text>
</svg>
